# xmcd CD database file
#
# Track frame offsets:
#	150
#	18140
#	41340
#
# Disc length: 855 seconds
#
# Revision: 0
# Processed by: cddbd v1.5.2PL0 Copyright (c) Steve Scherf et al.
# Submitted via: CDex 1.70beta2
#
DISCID=14035503
DTITLE=Joe Cocker - Five Women
DYEAR=1987
DGENRE=Jazz
TTITLE0=five women
TTITLE1=unchain my heart
TTITLE2=two wrongs
EXTD=YEAR: 1987
EXTT0=
EXTT1=
EXTT2=
PLAYORDER=
